# Made in Blockbench 4.9.4
mtllib card_frontplate.mtl

o cylinder
v 0.4408262487936979 -0.000012499999936937956 0.6249999993749995
v 0.4581578392537782 -0.000012499999936937956 0.6203560137076741
v 0.47369691815394793 -0.000012499999936937956 0.6113845223217023
v 0.4863845229467027 -0.000012499999936937956 0.5986969175289475
v 0.49535601433267457 -0.000012499999936937956 0.5831578386287778
v 0.5 -0.000012499999936937956 0.5658262481686975
v 0.5000000000000001 0.000012499999938048179 -0.5658262481686978
v 0.4953560143326746 0.000012499999938048179 -0.583157838628778
v 0.48638452294670276 0.000012499999938048179 -0.5986969175289478
v 0.473696918153948 0.000012499999938048179 -0.6113845223217027
v 0.4581578392537782 0.000012499999938048179 -0.6203560137076746
v 0.4408262487936979 0.000012499999938048179 -0.624999999375
v -0.44082624879369803 0.000012499999938048179 -0.624999999375
v -0.45815783925377823 0.000012499999938048179 -0.6203560137076745
v -0.47369691815394793 0.000012499999938048179 -0.6113845223217027
v -0.4863845229467027 0.000012499999938048179 -0.5986969175289478
v -0.49535601433267457 0.000012499999938048179 -0.5831578386287781
v -0.5 0.000012499999938048179 -0.565826248168698
v -0.5000000000000001 -0.000012499999936937956 0.5658262481686978
v -0.4953560143326747 -0.000012499999936937956 0.583157838628778
v -0.4863845229467028 -0.000012499999936937956 0.5986969175289478
v -0.47369691815394804 -0.000012499999936937956 0.6113845223217027
v -0.4581578392537783 -0.000012499999936937956 0.6203560137076746
v -0.440826248793698 -0.000012499999936937956 0.624999999375
vt 0.8989812500000001 0.9953562499999999
vt 0.017331249999999965 0.9953562499999999
vt 0 1
vt 0.9163125 1
vt 0.015543750000000023 0.99103125
vt 0 1
vt 0.9474 1
vt 0.93185625 0.99103125
vt 0.012687499999999963 0.9873125
vt 0 1
vt 0.972775 1
vt 0.9600875 0.9873125
vt 0.008968750000000025 0.98445625
vt 0 1
vt 0.9907125 1
vt 0.9817437499999999 0.98445625
vt 0.004643750000000002 0.98266875
vt 0 1
vt 1 1
vt 0.9953562499999999 0.98266875
vt 0 0.98266875
vt 0.004643750000000002 1
vt 0.9953562499999999 1
vt 1 0.98266875
vt 0 0.98445625
vt 0.008968750000000025 1
vt 0.9817437499999999 1
vt 0.9907125 0.98445625
vt 0 0.9248125
vt 0.012687499999999963 0.9375
vt 0.9600875 0.9375
vt 0.972775 0.9248125
vt 0 0.92853125
vt 0.015543750000000023 0.9375
vt 0.93185625 0.9375
vt 0.9474 0.92853125
vt 0 0.9953562499999999
vt 0.017331249999999965 1
vt 0.8989812500000001 1
vt 0.9163125 0.9953562499999999
vt 1 0.11834999999999996
vt 1 1
vt 0 1
vt 0 0.11834999999999996
vn 0 1 0
vn 0 1 0
vn 0 1 0
vn 0 1 0
vn 0 1 0
vn 0 1 0
vn 0 1 0
vn 0 1 0
vn 0 1 0
vn 0 1 0
vn -5.987936754712519e-21 0.9999999997559809 0.000022091587258277965
usemtl none
f 12/1/1 13/2/1 14/3/1 11/4/1
f 14/5/2 15/6/2 10/7/2 11/8/2
f 15/9/3 16/10/3 9/11/3 10/12/3
f 16/13/4 17/14/4 8/15/4 9/16/4
f 17/17/5 18/18/5 7/19/5 8/20/5
f 19/21/6 20/22/6 5/23/6 6/24/6
f 20/25/7 21/26/7 4/27/7 5/28/7
f 21/29/8 22/30/8 3/31/8 4/32/8
f 22/33/9 23/34/9 2/35/9 3/36/9
f 23/37/10 24/38/10 1/39/10 2/40/10
f 6/41/11 7/42/11 18/43/11 19/44/11
o cylinder
v 0.39454023088485657 0.018737500000063065 0.5812499993697915
v 0.412614603793226 0.018737500000063065 0.5764512141800715
v 0.4288196432176887 0.018737500000063065 0.567180673080943
v 0.4420510025015615 0.018737500000063065 0.5540701481280186
v 0.4514069863755036 0.018737500000063065 0.5380130999306731
v 0.45625000000000016 0.018737500000063065 0.5201037897880283
v 0.45625000000000027 0.01876249999993805 -0.513645456459701
v 0.4514069863755037 0.01876249999993805 -0.5315547666023457
v 0.4420510025015616 0.01876249999993805 -0.5476118147996913
v 0.4288196432176888 0.01876249999993805 -0.560722339752616
v 0.412614603793226 0.01876249999993805 -0.5699928808517445
v 0.39454023088485657 0.01876249999993805 -0.5747916660414643
v -0.3945402308848567 0.01876249999993805 -0.5812499993750002
v -0.412614603793226 0.01876249999993805 -0.5764512141852802
v -0.4288196432176887 0.01876249999993805 -0.5671806730861519
v -0.4420510025015615 0.01876249999993805 -0.5540701481332273
v -0.4514069863755036 0.01876249999993805 -0.5380130999358816
v -0.45625000000000016 0.01876249999993805 -0.5201037897932372
v -0.45625000000000027 0.01874062500004743 0.5201037899494871
v -0.45140698637550375 0.01874062500004743 0.5380131000921315
v -0.44205100250156165 0.01874062500004743 0.5540701482894774
v -0.42881964321768884 0.01874062500004743 0.5671806732424018
v -0.4126146037932261 0.01874062500004743 0.5764512143415301
v -0.3945402308848566 0.01874062500004743 0.5812499995312503
v 0.40957624879369803 -0.000012499999936937956 0.5937499993749996
v 0.4269078392537783 -0.000012499999936937956 0.5891060137076742
v 0.442446918153948 -0.000012499999936937956 0.5801345223217024
v 0.45513452294670276 -0.000012499999936937956 0.5674469175289476
v 0.4641060143326746 -0.000012499999936937956 0.5519078386287779
v 0.4687500000000001 -0.000012499999936937956 0.5345762481686976
v 0.4687500000000002 0.000012499999938048179 -0.5345762481686979
v 0.46410601433267473 0.000012499999938048179 -0.5519078386287781
v 0.45513452294670287 0.000012499999938048179 -0.5674469175289479
v 0.4424469181539481 0.000012499999938048179 -0.5801345223217028
v 0.4269078392537783 0.000012499999938048179 -0.5891060137076747
v 0.40957624879369803 0.000012499999938048179 -0.5937499993750001
v -0.40957624879369814 0.000012499999938048179 -0.5937499993750001
v -0.4269078392537783 0.000012499999938048179 -0.5891060137076746
v -0.442446918153948 0.000012499999938048179 -0.5801345223217028
v -0.45513452294670276 0.000012499999938048179 -0.5674469175289479
v -0.4641060143326746 0.000012499999938048179 -0.5519078386287782
v -0.4687500000000001 0.000012499999938048179 -0.5345762481686981
v -0.4687500000000002 -0.000009374999952564689 0.5345762483249479
v -0.4641060143326748 -0.000009374999952564689 0.5519078387850281
v -0.4551345229467029 -0.000009374999952564689 0.567446917685198
v -0.44244691815394815 -0.000009374999952564689 0.5801345224779528
v -0.4269078392537784 -0.000009374999952564689 0.5891060138639247
v -0.4095762487936981 -0.000009374999952564689 0.5937499995312501
v -0.37832624879369825 0.000012499999938048179 -0.5624999993750002
v -0.3956578392537784 0.000012499999938048179 -0.5578560137076747
v 0.37832624879369814 0.000012499999938048179 -0.5562499993750002
v 0.3956578392537784 0.000012499999938048179 -0.5516060137076748
v -0.4111969181539481 0.000012499999938048179 -0.5488845223217029
v -0.42388452294670287 0.000012499999938048179 -0.536196917528948
v -0.43285601433267473 0.000012499999938048179 -0.5206578386287783
v -0.4375000000000002 0.000012499999938048179 -0.5033262481686982
v -0.43750000000000033 -0.000009374999952571628 0.503326248324948
v -0.4328560143326749 -0.000009374999952571628 0.5206578387850282
v -0.42388452294670304 -0.000009374999952571628 0.5361969176851981
v -0.41119691815394827 -0.000009374999952571628 0.5488845224779529
v -0.3956578392537785 -0.000009374999952571628 0.5578560138639248
v -0.3783262487936982 -0.000009374999952571628 0.5624999995312502
v 0.37832624879369814 -0.000012499999936937956 0.5624999993749997
v 0.3956578392537784 -0.000012499999936937956 0.5578560137076743
v 0.4111969181539481 -0.000012499999936937956 0.5488845223217025
v 0.42388452294670287 -0.000012499999936937956 0.5361969175289477
v 0.43285601433267473 -0.000012499999936937956 0.520657838628778
v 0.4375000000000002 -0.000012499999936937956 0.5033262481686978
v 0.43750000000000033 0.000012499999938048179 -0.497076248168698
v 0.43285601433267484 0.000012499999938048179 -0.5144078386287783
v 0.423884522946703 0.000012499999938048179 -0.5299469175289481
v 0.4111969181539482 0.000012499999938048179 -0.542634522321703
vt 0.022093749999999995 1
vt 0 0.9267125
vt 0.01794374999999998 0.9267125
vt 0.040037500000000004 1
vt 0.011437500000000003 1
vt 0 0.9243125
vt 0.01793750000000001 0.9243125
vt 0.029381249999999998 1
vt 0 1
vt 0 0.92345625
vt 0.01794375000000001 0.92345625
vt 0.01794375000000001 1
vt 0 1
vt 0.011437500000000017 0.9243125000000001
vt 0.029381250000000025 0.9243125000000001
vt 0.017943750000000036 1
vt 0 1
vt 0.022093749999999968 0.9267124999999999
vt 0.040037500000000004 0.9267124999999999
vt 0.01794374999999998 1
vt 0.06987573070156325 0.9687516338999519
vt 1.942890293094024e-16 1
vt 0 -0.06915000029228824
vt 0.06987426926023158 -0.03789836640942301
vt 0.022093750000000023 1
vt 0 0.9267125
vt 0.017943750000000036 0.9267125
vt 0.040037500000000004 1
vt 0.01143749999999999 1
vt 0 0.9243125
vt 0.01794375000000001 0.9243125
vt 0.029381250000000025 1
vt 0 1
vt 0 0.92345625
vt 0.01794375000000001 0.92345625
vt 0.01794375000000001 1
vt 0 1
vt 0.011443749999999989 0.9243125
vt 0.029381249999999998 0.9243125
vt 0.017943749999999994 1
vt 0 1
vt 0.022093750000000023 0.9267124999999999
vt 0.040037500000000004 0.9267124999999999
vt 0.01794375000000001 1
vt 0.7879 1
vt 0.81915 0.92711875
vt 0 0.92711875
vt 0.03125 0.9967875
vt 0.01794375000000001 1
vt 0.03841875 0.9233875
vt 0.02047500000000002 0.9233875
vt 0 1
vt 0.0083125 1
vt 0 0.92113125
vt 0.01793750000000001 0.92113125
vt 0.02625625000000001 1
vt 0 1
vt 0.004418749999999999 0.92081875
vt 0.022362500000000007 0.92081875
vt 0.01793750000000001 1
vt 0 1
vt 0.016850000000000004 0.92250625
vt 0.03479375000000001 0.92250625
vt 0.01794375000000001 1
vt 0 1
vt 0.028131249999999997 0.92585625
vt 0.04607500000000003 0.92585625
vt 0.017943750000000036 1
vt 0.06987426926023158 -0.03789836640942301
vt 0 -0.06915000029228824
vt 2.220446049250313e-16 1
vt 0.06987587684569642 0.9625016339016605
vt 0.022093750000000023 1
vt 0 0.9267124999999999
vt 0.017943750000000036 0.9267124999999999
vt 0.040037500000000004 1
vt 0.01143749999999999 1
vt 0 0.9243125000000001
vt 0.01794375000000001 0.9243125000000001
vt 0.029381250000000025 1
vt 0 1
vt 0 0.92345625
vt 0.01794375000000001 0.92345625
vt 0.01794375000000001 1
vt 0 1
vt 0.011443749999999989 0.9243125
vt 0.029381249999999998 0.9243125
vt 0.017943749999999994 1
vt 0 1
vt 0.022093750000000023 0.9267124999999999
vt 0.040037500000000004 0.9267124999999999
vt 0.01794375000000001 1
vt 0.03125 1
vt 0 0.930125
vt 0.81915 0.93011875
vt 0.7879 1
vt 0.75668125 0.9375
vt 0.75668125 1
vt 0 1
vt 0 0.9375
vt 0.75668125 0.9375
vt 0.75668125 1
vt 0 1
vt 0 0.9375
vt 0.01794375000000001 0.9375
vt 0.01794375000000001 1
vt 0 1
vt 0 0.9375
vt 0.017943749999999994 0.9375
vt 0.017943749999999994 1
vt 0 1
vt 0 0.9375
vt 0.01794375000000001 0.9375
vt 0.01794375000000001 1
vt 0 1
vt 0 0.9375
vt 0.017943750000000036 0.9375
vt 0.017943750000000036 1
vt 0 1
vt 0 0.9375
vt 0.01794374999999998 0.9375
vt 0.01794374999999998 1
vt 0 1
vt 0 0.9375
vt 1.00665 0.68748125
vt 1.00665 0.74998125
vt 0 0.75
vt 0 0.6875
vt 0.01794374999999998 0.9375
vt 0.01794374999999998 1
vt 0 1
vt 0 0.9375
vt 0.017943750000000036 0.9375
vt 0.017943750000000036 1
vt 0 1
vt 0 0.9375
vt 0.01794375000000001 0.9375
vt 0.01794375000000001 1
vt 0 1
vt 0 0.9375
vt 0.017943749999999994 0.9375
vt 0.017943749999999994 1
vt 0 1
vt 0 0.9375
vt 0.08044375000000001 0.9375
vt 0.08044375000000001 1
vt 0.0625 1
vt 0.0625 0.9375
vt 0.75665 0.93749375
vt 0.75665 0.99999375
vt 0 1
vt 0 0.9375
vt 0.01794375000000001 0.9375
vt 0.01794375000000001 1
vt 0 1
vt 0 0.9375
vt 0.017943749999999994 0.9375
vt 0.017943749999999994 1
vt 0 1
vt 0 0.9375
vt 0.01794375000000001 0.9375
vt 0.01794375000000001 1
vt 0 1
vt 0 0.9375
vt 0.017943750000000036 0.9375
vt 0.017943750000000036 1
vt 0 1
vt 0 0.9375
vt 0.01794374999999998 0.9375
vt 0.01794374999999998 1
vt 0 1
vt 0 0.9375
vt 1.0004 0.6875
vt 1.0004 0.75
vt 0 0.7499750000000001
vt 0 0.6874750000000001
vt 0.017943750000000036 0.9375
vt 0.017943750000000036 1
vt 0 1
vt 0 0.9375
vt 0.01794375000000001 0.9375
vt 0.01794375000000001 1
vt 0 1
vt 0 0.9375
vt 0.01793750000000001 0.9375
vt 0.01793750000000001 1
vt 0 1
vt 0 0.9375
vt 0.01794375000000001 0.9375
vt 0.01794375000000001 1
vt 0 1
vt 0 0.9375
vt 0.08044375000000001 0.9375
vt 0.08044375000000001 1
vt 0.0625 1
vt 0.0625 0.9375
vt 0.031249026006193947 0.9999999999999998
vt 1.031653183904703 1
vt 1.0691519601187367 0.9687509689958261
vt 0 0.9687494235266894
vt 5.551115123125783e-17 0.9896586212539199
vt 0 0.9408445607795034
vt 0.014662623443815359 0.9511859395255834
vt 0.014662623443815359 1
vt 0 0.993800614319749
vt 0 0.9449865538453325
vt 0.016840850863673706 0.9511859395255833
vt 0.016840850863673762 1
vt 0 0.9983755320858514
vt 0 0.9495614716114349
vt 0.01786914705563475 0.9511859395255835
vt 0.01786914705563475 1
vt 0 1
vt 0.008325917199540622 0.9519012307560121
vt 0.026271575187616747 0.9519012307560121
vt 0.01794565798807607 0.9999999999999999
vt 0 1
vt 0.04881406047441661 1
vt 0.056341828783971315 0.9837129086420361
vt 0.007527768309554594 0.9837129086420361
vt 0.03125 0.96875
vt 0 1
vt 0.81915 1
vt 0.7879 0.9625
vt 0.008971417286304462 0.9844613284834256
vt 0.053165591110463595 0.9844613284834256
vt 0.044194173824159244 1
vt 0 1
vt 0.004649227086301444 0.9826670450261648
vt 0.04884340091046069 0.9826670450261648
vt 0.04419417382415913 1
vt 0 1
vt 0.04419417382415913 1
vt 0 1
vt 0 0.9820571654273914
vt 0.04419417382415913 0.9820571654273914
vt 0.10518529053150216 1
vt 0.0625 0.9885505034066446
vt 0.0625 0.9706048454185685
vt 0.10518529053150216 0.9820543420119239
vt 0.038273105405344454 1
vt 0 0.9779026154798495
vt 0 0.9599600225617397
vt 0.038273105405344454 0.9820574070818904
vt 0.71180625 0.24399375
vt 0.756 0.24399375
vt 0 1
vt 0 0.95580625
vt 0.022093749999999968 1
vt 0 0.961725
vt 0.01794374999999998 0.961725
vt 0.040037500000000004 1
vt 0.017943750000000036 0.8948125
vt 0.029381250000000025 0.9375
vt 0.011437500000000017 0.9375
vt 0 0.8948125
vt 0.01794375000000001 0.95580625
vt 0.01794375000000001 1
vt 0 1
vt 0 0.95580625
vt 0.029381249999999998 0.9573062499999999
vt 0.01793750000000001 1
vt 0 1
vt 0.011437500000000003 0.9573062499999999
vt 0 0.9375
vt 0.022093749999999995 0.8992249999999999
vt 0.040037500000000004 0.8992249999999999
vt 0.01794374999999998 0.9375
vt 0.579225 1
vt 0.53503125 1
vt 0 0.46496875000000004
vt 0 0.420775
vt 0.04419417382415913 1
vt 0 1
vt 0.00897141728630435 0.9844613284834256
vt 0.053165591110463595 0.9844613284834256
vt 0.044194173824159244 0.9375
vt 0 0.9375
vt 0.004649227086301555 0.9201670450261648
vt 0.04884340091046069 0.9201670450261648
vt 0.04419417382415913 1
vt 0 1
vt 0 0.9820571654273914
vt 0.04419417382415913 0.9820571654273914
vt 0.04268529053150216 1
vt 0 0.9885505034066446
vt 0 0.9706048454185685
vt 0.04268529053150216 0.9820543420119239
vt 0.038273105405344454 1
vt 0 0.9779026154798494
vt 0 0.9599600225617397
vt 0.038273105405344454 0.9820574070818904
vn -0.19727988341745414 0.6473051813202871 0.7362585482252182
vn -0.36038624512845974 0.6931717083730704 0.6242072869114625
vn -0.5005302755474129 0.7063560621392486 0.5005302755474086
vn -0.6256550444407719 0.6914292109978346 0.36122210832772655
vn -0.7382584268605592 0.6448592284406528 0.19781574928275705
vn -0.8320543373289088 0.5546941315746436 0.000011349114468909131
vn -0.7374296525881691 0.6458747906157152 -0.19759367988576604
vn -0.6244227864330024 0.692912869734951 -0.3605106638352324
vn -0.4993911295803748 0.7079668067027431 -0.4993911295803704
vn -0.35967631216477763 0.694645090582361 -0.6229776469484029
vn -0.1970581801060579 0.6483125108103458 -0.7354311402028567
vn 0 0.7110025972157274 -0.7031893818541987
vn 0.16717274864957096 0.7634170330960299 -0.6238971916011504
vn 0.31082827822589704 0.7832899372649293 -0.5383703703164092
vn 0.4435760303449912 0.7787686502465044 -0.4435760303449873
vn 0.5741314692475926 0.7486637483050281 -0.33147495832033247
vn 0.706307482709341 0.6821381580587296 -0.18925451960002845
vn 0.8320456734830112 0.5547071272932801 0.000012970720416951939
vn 0.7374296525620284 0.6458747906477045 0.19759367987876034
vn 0.6244227863896735 0.6929128697870125 0.36051066381021635
vn 0.4993911295313263 0.7079668067719364 0.4993911295313263
vn 0.35967631212154433 0.6946450906719102 0.6229776468735128
vn 0.19705818007995443 0.6483125109287654 0.7354311401054593
vn 0.000002116290246799732 0.5546990213097748 0.8320510776109239
vn -0.005861545320303931 0.7045557188340913 0.7096244650127523
vn -0.005861545320303931 0.7045557188340913 0.7096244650127523
vn 0.16634410236686453 0.766114375670968 0.6208046415725683
vn 0.302656387586592 0.7959877161188702 0.5242162405352391
vn 0.41905476725339336 0.8054726588062513 0.41905476725338975
vn 0.5230468110138451 0.7970127840783536 0.3019812171376206
vn 0.6191261610384926 0.7675687980515137 0.1658943548632476
vn 0.7071136556520531 0.7070999064872575 0.000015365590837972588
vn 0.6198206940180273 0.7669677893683507 -0.16608045441422767
vn 0.5240417774623903 0.7961408715163071 -0.30255566128452066
vn 0.4199677662104382 0.8045210691389211 -0.4199677662104346
vn 0.3032326596770653 0.7951099398326583 -0.5252143730749183
vn 0.16653085722406788 0.7655084648099063 -0.6215016201882321
vn 0.0000029202232930179255 0.7071055184589128 -0.7071080439058973
vn -0.1663441023888367 0.766114375599734 -0.6208046416545883
vn -0.30265638762167607 0.7959877160655149 -0.5242162405959999
vn -0.4190547672926827 0.8054726587653681 -0.41905476729268276
vn -0.523046811048813 0.7970127840477562 -0.3019812171578093
vn -0.619126161060393 0.7675687980325808 -0.16589435486911472
vn -0.7070989732897333 0.7071145887763522 0.000017670752217883287
vn -0.6206987425464915 0.7662063364508387 0.16631572680834691
vn -0.5254469991491056 0.7949049847499178 0.3033669664036168
vn -0.42154869549124474 0.802865738874977 0.421548695491241
vn -0.3046443031490582 0.7929485445067027 0.5276594112905847
vn -0.16741419335215263 0.7626267781808275 0.6247982754984036
vn -0.000029987929795217893 -0.9999999992381134 -0.000024989941496015092
vn 0 -1 0
vn 0 -1 0
vn 0 -1 0
vn 0 -1 0
vn 0 -1 0
vn 0 -1 0
vn 0 -1 0
vn 0 -1 0
vn 0 -1 0
vn 0 -1 0
vn 0 -1 0
vn -0.000020460130760984506 -0.9999999995813831 -0.00002046013076076246
vn -1.751210586753019e-16 -1 4.692354624973018e-17
vn -1.4077063874919115e-16 -1 8.127396617584097e-17
vn -1.1102230246251652e-16 -1 1.1102230246251554e-16
vn -8.127396617584115e-17 -1 1.4077063874919095e-16
vn -4.6923546249729627e-17 -1 1.751210586753025e-16
vn -0.000004130033264837527 -0.9999999999829429 -0.000004130033264615483
vn 0 -1 0
vn 0 -1 0
vn 0 -1 0
vn 0 -1 0
vn 0 -1 0
usemtl none
f 47/45/12 71/46/12 72/47/12 48/48/12
f 46/49/13 70/50/13 71/51/13 47/52/13
f 45/53/14 69/54/14 70/55/14 46/56/14
f 44/57/15 68/58/15 69/59/15 45/60/15
f 43/61/16 67/62/16 68/63/16 44/64/16
f 42/65/17 66/66/17 67/67/17 43/68/17
f 41/69/18 65/70/18 66/71/18 42/72/18
f 40/73/19 64/74/19 65/75/19 41/76/19
f 39/77/20 63/78/20 64/79/20 40/80/20
f 38/81/21 62/82/21 63/83/21 39/84/21
f 37/85/22 61/86/22 62/87/22 38/88/22
f 36/89/23 60/90/23 61/91/23 37/92/23
f 35/93/24 59/94/24 60/95/24 36/96/24
f 34/97/25 58/98/25 59/99/25 35/100/25
f 33/101/26 57/102/26 58/103/26 34/104/26
f 32/105/27 56/106/27 57/107/27 33/108/27
f 31/109/28 55/110/28 56/111/28 32/112/28
f 30/113/29 54/114/29 55/115/29 31/116/29
f 29/117/30 53/118/30 54/119/30 30/120/30
f 28/121/31 52/122/31 53/123/31 29/124/31
f 27/125/32 51/126/32 52/127/32 28/128/32
f 26/129/33 50/130/33 51/131/33 27/132/33
f 25/133/34 49/134/34 50/135/34 26/136/34
f 48/137/35 72/138/35 49/139/35 25/140/35
f 37/141/36 73/142/36 75/143/36 36/144/36
f 37/145/37 73/146/37 75/147/37 36/148/37
f 38/149/38 74/150/38 73/151/38 37/152/38
f 39/153/39 77/154/39 74/155/39 38/156/39
f 40/157/40 78/158/40 77/159/40 39/160/40
f 41/161/41 79/162/41 78/163/41 40/164/41
f 42/165/42 80/166/42 79/167/42 41/168/42
f 43/169/43 81/170/43 80/171/43 42/172/43
f 44/173/44 82/174/44 81/175/44 43/176/44
f 45/177/45 83/178/45 82/179/45 44/180/45
f 46/181/46 84/182/46 83/183/46 45/184/46
f 47/185/47 85/186/47 84/187/47 46/188/47
f 48/189/48 86/190/48 85/191/48 47/192/48
f 25/193/49 87/194/49 86/195/49 48/196/49
f 26/197/50 88/198/50 87/199/50 25/200/50
f 27/201/51 89/202/51 88/203/51 26/204/51
f 28/205/52 90/206/52 89/207/52 27/208/52
f 29/209/53 91/210/53 90/211/53 28/212/53
f 30/213/54 92/214/54 91/215/54 29/216/54
f 31/217/55 93/218/55 92/219/55 30/220/55
f 32/221/56 94/222/56 93/223/56 31/224/56
f 33/225/57 95/226/57 94/227/57 32/228/57
f 34/229/58 96/230/58 95/231/58 33/232/58
f 35/233/59 76/234/59 96/235/59 34/236/59
f 36/237/60 75/238/60 76/239/60 35/240/60
f 92/241/61 93/242/61 55/243/61 54/244/61
f 94/245/62 56/246/62 55/247/62 93/248/62
f 95/249/63 57/250/63 56/251/63 94/252/63
f 96/253/64 58/254/64 57/255/64 95/256/64
f 76/257/65 59/258/65 58/259/65 96/260/65
f 75/261/66 60/262/66 59/263/66 76/264/66
f 73/265/67 61/266/67 60/267/67 75/268/67
f 61/269/68 73/270/68 74/271/68 62/272/68
f 62/273/69 74/274/69 77/275/69 63/276/69
f 78/277/70 64/278/70 63/279/70 77/280/70
f 79/281/71 65/282/71 64/283/71 78/284/71
f 80/285/72 66/286/72 65/287/72 79/288/72
f 81/289/73 67/290/73 66/291/73 80/292/73
f 67/293/74 81/294/74 82/295/74 68/296/74
f 83/297/75 69/298/75 68/299/75 82/300/75
f 84/301/76 70/302/76 69/303/76 83/304/76
f 85/305/77 71/306/77 70/307/77 84/308/77
f 71/309/78 85/310/78 86/311/78 72/312/78
f 72/313/79 86/314/79 87/315/79 49/316/79
f 49/317/80 87/318/80 88/319/80 50/320/80
f 50/321/81 88/322/81 89/323/81 51/324/81
f 51/325/82 89/326/82 90/327/82 52/328/82
f 52/329/83 90/330/83 91/331/83 53/332/83
f 53/333/84 91/334/84 92/335/84 54/336/84