# Made in Blockbench 4.9.4
mtllib card_frontplate.mtl

o cylinder
v 0.39454023088485657 0.018737500000063065 0.706249999369791
v 0.412614603793226 0.018737500000063065 0.7014512141800711
v 0.4288196432176887 0.018737500000063065 0.6921806730809426
v 0.4420510025015615 0.018737500000063065 0.6790701481280181
v 0.4514069863755036 0.018737500000063065 0.6630130999306727
v 0.45625000000000016 0.018737500000063065 0.6451037897880278
v 0.45625000000000027 0.01876249999993805 -0.6386454564597006
v 0.4514069863755037 0.01876249999993805 -0.6565547666023452
v 0.4420510025015616 0.01876249999993805 -0.6726118147996909
v 0.4288196432176888 0.01876249999993805 -0.6857223397526155
v 0.412614603793226 0.01876249999993805 -0.694992880851744
v 0.39454023088485657 0.01876249999993805 -0.6997916660414638
v -0.3945402308848567 0.01876249999993805 -0.7062499993749998
v -0.412614603793226 0.01876249999993805 -0.7014512141852798
v -0.4288196432176887 0.01876249999993805 -0.6921806730861515
v -0.4420510025015615 0.01876249999993805 -0.6790701481332269
v -0.4514069863755036 0.01876249999993805 -0.6630130999358812
v -0.45625000000000016 0.01876249999993805 -0.6451037897932368
v -0.45625000000000027 0.01874062500004743 0.6451037899494867
v -0.45140698637550375 0.01874062500004743 0.6630131000921311
v -0.44205100250156165 0.01874062500004743 0.679070148289477
v -0.42881964321768884 0.01874062500004743 0.6921806732424014
v -0.4126146037932261 0.01874062500004743 0.7014512143415297
v -0.3945402308848566 0.01874062500004743 0.7062499995312499
v 0.40957624879369803 -0.000012499999936937956 0.7187499993749992
v 0.4269078392537783 -0.000012499999936937956 0.7141060137076738
v 0.442446918153948 -0.000012499999936937956 0.7051345223217019
v 0.45513452294670276 -0.000012499999936937956 0.6924469175289472
v 0.4641060143326746 -0.000012499999936937956 0.6769078386287775
v 0.4687500000000001 -0.000012499999936937956 0.6595762481686972
v 0.4687500000000002 0.000012499999938048179 -0.6595762481686974
v 0.46410601433267473 0.000012499999938048179 -0.6769078386287777
v 0.45513452294670287 0.000012499999938048179 -0.6924469175289475
v 0.4424469181539481 0.000012499999938048179 -0.7051345223217024
v 0.4269078392537783 0.000012499999938048179 -0.7141060137076742
v 0.40957624879369803 0.000012499999938048179 -0.7187499993749996
v -0.40957624879369814 0.000012499999938048179 -0.7187499993749996
v -0.4269078392537783 0.000012499999938048179 -0.7141060137076741
v -0.442446918153948 0.000012499999938048179 -0.7051345223217024
v -0.45513452294670276 0.000012499999938048179 -0.6924469175289475
v -0.4641060143326746 0.000012499999938048179 -0.6769078386287778
v -0.4687500000000001 0.000012499999938048179 -0.6595762481686976
v -0.4687500000000002 -0.000009374999952564689 0.6595762483249474
v -0.4641060143326748 -0.000009374999952564689 0.6769078387850277
v -0.4551345229467029 -0.000009374999952564689 0.6924469176851975
v -0.44244691815394815 -0.000009374999952564689 0.7051345224779524
v -0.4269078392537784 -0.000009374999952564689 0.7141060138639242
v -0.4095762487936981 -0.000009374999952564689 0.7187499995312496
v -0.37832624879369825 0.000012499999938048179 -0.6874999993749997
v -0.3956578392537784 0.000012499999938048179 -0.6828560137076742
v 0.37832624879369814 0.000012499999938048179 -0.6812499993749997
v 0.3956578392537784 0.000012499999938048179 -0.6766060137076744
v -0.4111969181539481 0.000012499999938048179 -0.6738845223217025
v -0.42388452294670287 0.000012499999938048179 -0.6611969175289476
v -0.43285601433267473 0.000012499999938048179 -0.6456578386287779
v -0.4375000000000002 0.000012499999938048179 -0.6283262481686978
v -0.43750000000000033 -0.000009374999952571628 0.6283262483249475
v -0.4328560143326749 -0.000009374999952571628 0.6456578387850278
v -0.42388452294670304 -0.000009374999952571628 0.6611969176851976
v -0.41119691815394827 -0.000009374999952571628 0.6738845224779525
v -0.3956578392537785 -0.000009374999952571628 0.6828560138639244
v -0.3783262487936982 -0.000009374999952571628 0.6874999995312497
v 0.37832624879369814 -0.000012499999936937956 0.6874999993749993
v 0.3956578392537784 -0.000012499999936937956 0.6828560137076739
v 0.4111969181539481 -0.000012499999936937956 0.673884522321702
v 0.42388452294670287 -0.000012499999936937956 0.6611969175289473
v 0.43285601433267473 -0.000012499999936937956 0.6456578386287776
v 0.4375000000000002 -0.000012499999936937956 0.6283262481686973
v 0.43750000000000033 0.000012499999938048179 -0.6220762481686976
v 0.43285601433267484 0.000012499999938048179 -0.6394078386287778
v 0.423884522946703 0.000012499999938048179 -0.6549469175289476
v 0.4111969181539482 0.000012499999938048179 -0.6676345223217025
vt 0.022093749999999995 1
vt 0 0.9267125
vt 0.01794374999999998 0.9267125
vt 0.040037500000000004 1
vt 0.011437500000000003 1
vt 0 0.9243125
vt 0.01793750000000001 0.9243125
vt 0.029381249999999998 1
vt 0 1
vt 0 0.92345625
vt 0.01794375000000001 0.92345625
vt 0.01794375000000001 1
vt 0 1
vt 0.011437500000000017 0.9243125000000001
vt 0.029381250000000025 0.9243125000000001
vt 0.017943750000000036 1
vt 0 1
vt 0.022093749999999968 0.9267124999999999
vt 0.040037500000000004 0.9267124999999999
vt 0.01794374999999998 1
vt 0.06987573070156325 0.9687516338999519
vt 1.942890293094024e-16 1
vt 0 -0.06915000029228824
vt 0.06987426926023158 -0.03789836640942301
vt 0.022093750000000023 1
vt 0 0.9267125
vt 0.017943750000000036 0.9267125
vt 0.040037500000000004 1
vt 0.01143749999999999 1
vt 0 0.9243125
vt 0.01794375000000001 0.9243125
vt 0.029381250000000025 1
vt 0 1
vt 0 0.92345625
vt 0.01794375000000001 0.92345625
vt 0.01794375000000001 1
vt 0 1
vt 0.011443749999999989 0.9243125
vt 0.029381249999999998 0.9243125
vt 0.017943749999999994 1
vt 0 1
vt 0.022093750000000023 0.9267124999999999
vt 0.040037500000000004 0.9267124999999999
vt 0.01794375000000001 1
vt 0.7879 1
vt 0.81915 0.92711875
vt 0 0.92711875
vt 0.03125 0.9967875
vt 0.01794375000000001 1
vt 0.03841875 0.9233875
vt 0.02047500000000002 0.9233875
vt 0 1
vt 0.0083125 1
vt 0 0.92113125
vt 0.01793750000000001 0.92113125
vt 0.02625625000000001 1
vt 0 1
vt 0.004418749999999999 0.92081875
vt 0.022362500000000007 0.92081875
vt 0.01793750000000001 1
vt 0 1
vt 0.016850000000000004 0.92250625
vt 0.03479375000000001 0.92250625
vt 0.01794375000000001 1
vt 0 1
vt 0.028131249999999997 0.92585625
vt 0.04607500000000003 0.92585625
vt 0.017943750000000036 1
vt 0.06987426926023158 -0.03789836640942301
vt 0 -0.06915000029228824
vt 2.220446049250313e-16 1
vt 0.06987587684569642 0.9625016339016605
vt 0.022093750000000023 1
vt 0 0.9267124999999999
vt 0.017943750000000036 0.9267124999999999
vt 0.040037500000000004 1
vt 0.01143749999999999 1
vt 0 0.9243125000000001
vt 0.01794375000000001 0.9243125000000001
vt 0.029381250000000025 1
vt 0 1
vt 0 0.92345625
vt 0.01794375000000001 0.92345625
vt 0.01794375000000001 1
vt 0 1
vt 0.011443749999999989 0.9243125
vt 0.029381249999999998 0.9243125
vt 0.017943749999999994 1
vt 0 1
vt 0.022093750000000023 0.9267124999999999
vt 0.040037500000000004 0.9267124999999999
vt 0.01794375000000001 1
vt 0.03125 1
vt 0 0.930125
vt 0.81915 0.93011875
vt 0.7879 1
vt 0.75668125 0.9375
vt 0.75668125 1
vt 0 1
vt 0 0.9375
vt 0.75668125 0.9375
vt 0.75668125 1
vt 0 1
vt 0 0.9375
vt 0.01794375000000001 0.9375
vt 0.01794375000000001 1
vt 0 1
vt 0 0.9375
vt 0.017943749999999994 0.9375
vt 0.017943749999999994 1
vt 0 1
vt 0 0.9375
vt 0.01794375000000001 0.9375
vt 0.01794375000000001 1
vt 0 1
vt 0 0.9375
vt 0.017943750000000036 0.9375
vt 0.017943750000000036 1
vt 0 1
vt 0 0.9375
vt 0.01794374999999998 0.9375
vt 0.01794374999999998 1
vt 0 1
vt 0 0.9375
vt 1.00665 0.68748125
vt 1.00665 0.74998125
vt 0 0.75
vt 0 0.6875
vt 0.01794374999999998 0.9375
vt 0.01794374999999998 1
vt 0 1
vt 0 0.9375
vt 0.017943750000000036 0.9375
vt 0.017943750000000036 1
vt 0 1
vt 0 0.9375
vt 0.01794375000000001 0.9375
vt 0.01794375000000001 1
vt 0 1
vt 0 0.9375
vt 0.017943749999999994 0.9375
vt 0.017943749999999994 1
vt 0 1
vt 0 0.9375
vt 0.08044375000000001 0.9375
vt 0.08044375000000001 1
vt 0.0625 1
vt 0.0625 0.9375
vt 0.75665 0.93749375
vt 0.75665 0.99999375
vt 0 1
vt 0 0.9375
vt 0.01794375000000001 0.9375
vt 0.01794375000000001 1
vt 0 1
vt 0 0.9375
vt 0.017943749999999994 0.9375
vt 0.017943749999999994 1
vt 0 1
vt 0 0.9375
vt 0.01794375000000001 0.9375
vt 0.01794375000000001 1
vt 0 1
vt 0 0.9375
vt 0.017943750000000036 0.9375
vt 0.017943750000000036 1
vt 0 1
vt 0 0.9375
vt 0.01794374999999998 0.9375
vt 0.01794374999999998 1
vt 0 1
vt 0 0.9375
vt 1.0004 0.6875
vt 1.0004 0.75
vt 0 0.7499750000000001
vt 0 0.6874750000000001
vt 0.017943750000000036 0.9375
vt 0.017943750000000036 1
vt 0 1
vt 0 0.9375
vt 0.01794375000000001 0.9375
vt 0.01794375000000001 1
vt 0 1
vt 0 0.9375
vt 0.01793750000000001 0.9375
vt 0.01793750000000001 1
vt 0 1
vt 0 0.9375
vt 0.01794375000000001 0.9375
vt 0.01794375000000001 1
vt 0 1
vt 0 0.9375
vt 0.08044375000000001 0.9375
vt 0.08044375000000001 1
vt 0.0625 1
vt 0.0625 0.9375
vt 0.031249026006193947 0.9999999999999998
vt 1.031653183904703 1
vt 1.0691519601187367 0.9687509689958261
vt 0 0.9687494235266894
vt 5.551115123125783e-17 0.9896586212539199
vt 0 0.9408445607795034
vt 0.014662623443815359 0.9511859395255834
vt 0.014662623443815359 1
vt 0 0.993800614319749
vt 0 0.9449865538453325
vt 0.016840850863673706 0.9511859395255833
vt 0.016840850863673762 1
vt 0 0.9983755320858514
vt 0 0.9495614716114349
vt 0.01786914705563475 0.9511859395255835
vt 0.01786914705563475 1
vt 0 1
vt 0.008325917199540622 0.9519012307560121
vt 0.026271575187616747 0.9519012307560121
vt 0.01794565798807607 0.9999999999999999
vt 0 1
vt 0.04881406047441661 1
vt 0.056341828783971315 0.9837129086420361
vt 0.007527768309554594 0.9837129086420361
vt 0.03125 0.96875
vt 0 1
vt 0.81915 1
vt 0.7879 0.9625
vt 0.008971417286304462 0.9844613284834256
vt 0.053165591110463595 0.9844613284834256
vt 0.044194173824159244 1
vt 0 1
vt 0.004649227086301444 0.9826670450261648
vt 0.04884340091046069 0.9826670450261648
vt 0.04419417382415913 1
vt 0 1
vt 0.04419417382415913 1
vt 0 1
vt 0 0.9820571654273914
vt 0.04419417382415913 0.9820571654273914
vt 0.10518529053150216 1
vt 0.0625 0.9885505034066446
vt 0.0625 0.9706048454185685
vt 0.10518529053150216 0.9820543420119239
vt 0.038273105405344454 1
vt 0 0.9779026154798495
vt 0 0.9599600225617397
vt 0.038273105405344454 0.9820574070818904
vt 0.71180625 0.24399375
vt 0.756 0.24399375
vt 0 1
vt 0 0.95580625
vt 0.022093749999999968 1
vt 0 0.961725
vt 0.01794374999999998 0.961725
vt 0.040037500000000004 1
vt 0.017943750000000036 0.8948125
vt 0.029381250000000025 0.9375
vt 0.011437500000000017 0.9375
vt 0 0.8948125
vt 0.01794375000000001 0.95580625
vt 0.01794375000000001 1
vt 0 1
vt 0 0.95580625
vt 0.029381249999999998 0.9573062499999999
vt 0.01793750000000001 1
vt 0 1
vt 0.011437500000000003 0.9573062499999999
vt 0 0.9375
vt 0.022093749999999995 0.8992249999999999
vt 0.040037500000000004 0.8992249999999999
vt 0.01794374999999998 0.9375
vt 0.579225 1
vt 0.53503125 1
vt 0 0.46496875000000004
vt 0 0.420775
vt 0.04419417382415913 1
vt 0 1
vt 0.00897141728630435 0.9844613284834256
vt 0.053165591110463595 0.9844613284834256
vt 0.044194173824159244 0.9375
vt 0 0.9375
vt 0.004649227086301555 0.9201670450261648
vt 0.04884340091046069 0.9201670450261648
vt 0.04419417382415913 1
vt 0 1
vt 0 0.9820571654273914
vt 0.04419417382415913 0.9820571654273914
vt 0.04268529053150216 1
vt 0 0.9885505034066446
vt 0 0.9706048454185685
vt 0.04268529053150216 0.9820543420119239
vt 0.038273105405344454 1
vt 0 0.9779026154798494
vt 0 0.9599600225617397
vt 0.038273105405344454 0.9820574070818904
vn -0.19727988341745414 0.6473051813202871 0.7362585482252182
vn -0.36038624512845974 0.6931717083730704 0.6242072869114625
vn -0.5005302755474129 0.7063560621392486 0.5005302755474086
vn -0.6256550444407719 0.6914292109978346 0.36122210832772655
vn -0.7382584268605592 0.6448592284406528 0.19781574928275705
vn -0.8320535711373754 0.55469528091821 0.000009198299090946075
vn -0.7374296525881691 0.6458747906157152 -0.19759367988576604
vn -0.6244227864330024 0.692912869734951 -0.3605106638352324
vn -0.4993911295803748 0.7079668067027431 -0.4993911295803704
vn -0.35967631216477763 0.694645090582361 -0.6229776469484029
vn -0.1970581801060579 0.6483125108103458 -0.7354311402028567
vn 0 0.7110025972157274 -0.7031893818541987
vn 0.16717274864957096 0.7634170330960299 -0.6238971916011504
vn 0.31082827822589704 0.7832899372649293 -0.5383703703164092
vn 0.4435760303449912 0.7787686502465044 -0.4435760303449873
vn 0.5741314692475926 0.7486637483050281 -0.33147495832033247
vn 0.706307482709341 0.6821381580587296 -0.18925451960002845
vn 0.8320465492312221 0.5547058137444588 0.000010512541433125822
vn 0.7374296525620284 0.6458747906477045 0.19759367987876034
vn 0.6244227863896735 0.6929128697870125 0.36051066381021635
vn 0.4993911295313263 0.7079668067719364 0.4993911295313263
vn 0.35967631212154433 0.6946450906719102 0.6229776468735128
vn 0.19705818007995443 0.6483125109287654 0.7354311401054593
vn 0.000002116290246799732 0.5546990213097748 0.8320510776109239
vn -0.005861545320303931 0.7045557188340913 0.7096244650127523
vn -0.005861545320303931 0.7045557188340913 0.7096244650127523
vn 0.16634410236686453 0.766114375670968 0.6208046415725683
vn 0.302656387586592 0.7959877161188702 0.5242162405352391
vn 0.41905476725339336 0.8054726588062513 0.41905476725338975
vn 0.5230468110138451 0.7970127840783536 0.3019812171376206
vn 0.6191261610384926 0.7675687980515137 0.1658943548632476
vn 0.7071122880666733 0.707101274156403 0.000012308765023000635
vn 0.6198206940180273 0.7669677893683507 -0.16608045441422767
vn 0.5240417774623903 0.7961408715163071 -0.30255566128452066
vn 0.4199677662104382 0.8045210691389211 -0.4199677662104346
vn 0.3032326596770653 0.7951099398326583 -0.5252143730749183
vn 0.16653085722406788 0.7655084648099063 -0.6215016201882321
vn 0.0000029202232930179255 0.7071055184589128 -0.7071080439058973
vn -0.1663441023888367 0.766114375599734 -0.6208046416545883
vn -0.30265638762167607 0.7959877160655149 -0.5242162405959999
vn -0.4190547672926827 0.8054726587653681 -0.41905476729268276
vn -0.523046811048813 0.7970127840477562 -0.3019812171578093
vn -0.619126161060393 0.7675687980325808 -0.16589435486911472
vn -0.7071005344047795 0.7071130277717986 0.000014137708184042504
vn -0.6206987425464915 0.7662063364508387 0.16631572680834691
vn -0.5254469991491056 0.7949049847499178 0.3033669664036168
vn -0.42154869549124474 0.802865738874977 0.421548695491241
vn -0.3046443031490582 0.7929485445067027 0.5276594112905847
vn -0.16741419335215263 0.7626267781808275 0.6247982754984036
vn -0.000023992274426216113 -0.9999999995123142 -0.000019993562021846976
vn 0 -1 0
vn 0 -1 0
vn 0 -1 0
vn 0 -1 0
vn 0 -1 0
vn 0 -1 0
vn 0 -1 0
vn 0 -1 0
vn 0 -1 0
vn 0 -1 0
vn 0 -1 0
vn -0.000016582616447328918 -0.9999999997250169 -0.000016582616447106873
vn -1.751210586753019e-16 -1 4.692354624973018e-17
vn -1.4077063874919115e-16 -1 8.127396617584097e-17
vn -1.1102230246251652e-16 -1 1.1102230246251554e-16
vn -8.127396617584115e-17 -1 1.4077063874919095e-16
vn -4.6923546249729627e-17 -1 1.751210586753025e-16
vn -0.000004130033264837527 -0.9999999999829429 -0.000004130033264615483
vn 0 -1 0
vn 0 -1 0
vn 0 -1 0
vn 0 -1 0
vn 0 -1 0
usemtl none
f 23/1/1 47/2/1 48/3/1 24/4/1
f 22/5/2 46/6/2 47/7/2 23/8/2
f 21/9/3 45/10/3 46/11/3 22/12/3
f 20/13/4 44/14/4 45/15/4 21/16/4
f 19/17/5 43/18/5 44/19/5 20/20/5
f 18/21/6 42/22/6 43/23/6 19/24/6
f 17/25/7 41/26/7 42/27/7 18/28/7
f 16/29/8 40/30/8 41/31/8 17/32/8
f 15/33/9 39/34/9 40/35/9 16/36/9
f 14/37/10 38/38/10 39/39/10 15/40/10
f 13/41/11 37/42/11 38/43/11 14/44/11
f 12/45/12 36/46/12 37/47/12 13/48/12
f 11/49/13 35/50/13 36/51/13 12/52/13
f 10/53/14 34/54/14 35/55/14 11/56/14
f 9/57/15 33/58/15 34/59/15 10/60/15
f 8/61/16 32/62/16 33/63/16 9/64/16
f 7/65/17 31/66/17 32/67/17 8/68/17
f 6/69/18 30/70/18 31/71/18 7/72/18
f 5/73/19 29/74/19 30/75/19 6/76/19
f 4/77/20 28/78/20 29/79/20 5/80/20
f 3/81/21 27/82/21 28/83/21 4/84/21
f 2/85/22 26/86/22 27/87/22 3/88/22
f 1/89/23 25/90/23 26/91/23 2/92/23
f 24/93/24 48/94/24 25/95/24 1/96/24
f 13/97/25 49/98/25 51/99/25 12/100/25
f 13/101/26 49/102/26 51/103/26 12/104/26
f 14/105/27 50/106/27 49/107/27 13/108/27
f 15/109/28 53/110/28 50/111/28 14/112/28
f 16/113/29 54/114/29 53/115/29 15/116/29
f 17/117/30 55/118/30 54/119/30 16/120/30
f 18/121/31 56/122/31 55/123/31 17/124/31
f 19/125/32 57/126/32 56/127/32 18/128/32
f 20/129/33 58/130/33 57/131/33 19/132/33
f 21/133/34 59/134/34 58/135/34 20/136/34
f 22/137/35 60/138/35 59/139/35 21/140/35
f 23/141/36 61/142/36 60/143/36 22/144/36
f 24/145/37 62/146/37 61/147/37 23/148/37
f 1/149/38 63/150/38 62/151/38 24/152/38
f 2/153/39 64/154/39 63/155/39 1/156/39
f 3/157/40 65/158/40 64/159/40 2/160/40
f 4/161/41 66/162/41 65/163/41 3/164/41
f 5/165/42 67/166/42 66/167/42 4/168/42
f 6/169/43 68/170/43 67/171/43 5/172/43
f 7/173/44 69/174/44 68/175/44 6/176/44
f 8/177/45 70/178/45 69/179/45 7/180/45
f 9/181/46 71/182/46 70/183/46 8/184/46
f 10/185/47 72/186/47 71/187/47 9/188/47
f 11/189/48 52/190/48 72/191/48 10/192/48
f 12/193/49 51/194/49 52/195/49 11/196/49
f 68/197/50 69/198/50 31/199/50 30/200/50
f 70/201/51 32/202/51 31/203/51 69/204/51
f 71/205/52 33/206/52 32/207/52 70/208/52
f 72/209/53 34/210/53 33/211/53 71/212/53
f 52/213/54 35/214/54 34/215/54 72/216/54
f 51/217/55 36/218/55 35/219/55 52/220/55
f 49/221/56 37/222/56 36/223/56 51/224/56
f 37/225/57 49/226/57 50/227/57 38/228/57
f 38/229/58 50/230/58 53/231/58 39/232/58
f 54/233/59 40/234/59 39/235/59 53/236/59
f 55/237/60 41/238/60 40/239/60 54/240/60
f 56/241/61 42/242/61 41/243/61 55/244/61
f 57/245/62 43/246/62 42/247/62 56/248/62
f 43/249/63 57/250/63 58/251/63 44/252/63
f 59/253/64 45/254/64 44/255/64 58/256/64
f 60/257/65 46/258/65 45/259/65 59/260/65
f 61/261/66 47/262/66 46/263/66 60/264/66
f 47/265/67 61/266/67 62/267/67 48/268/67
f 48/269/68 62/270/68 63/271/68 25/272/68
f 25/273/69 63/274/69 64/275/69 26/276/69
f 26/277/70 64/278/70 65/279/70 27/280/70
f 27/281/71 65/282/71 66/283/71 28/284/71
f 28/285/72 66/286/72 67/287/72 29/288/72
f 29/289/73 67/290/73 68/291/73 30/292/73