# Made in Blockbench 4.9.4
mtllib card_backplate.mtl

o cylinder
v 0.4408262487936979 -0.000012499999936937956 0.6249999993749995
v 0.4581578392537782 -0.000012499999936937956 0.6203560137076741
v 0.47369691815394793 -0.000012499999936937956 0.6113845223217023
v 0.4863845229467027 -0.000012499999936937956 0.5986969175289475
v 0.49535601433267457 -0.000012499999936937956 0.5831578386287778
v 0.5 -0.000012499999936937956 0.5658262481686975
v 0.5000000000000001 0.000012499999938048179 -0.5658262481686978
v 0.4953560143326746 0.000012499999938048179 -0.583157838628778
v 0.48638452294670276 0.000012499999938048179 -0.5986969175289478
v 0.473696918153948 0.000012499999938048179 -0.6113845223217027
v 0.4581578392537782 0.000012499999938048179 -0.6203560137076746
v 0.4408262487936979 0.000012499999938048179 -0.624999999375
v -0.44082624879369803 0.000012499999938048179 -0.624999999375
v -0.45815783925377823 0.000012499999938048179 -0.6203560137076745
v -0.47369691815394793 0.000012499999938048179 -0.6113845223217027
v -0.4863845229467027 0.000012499999938048179 -0.5986969175289478
v -0.49535601433267457 0.000012499999938048179 -0.5831578386287781
v -0.5 0.000012499999938048179 -0.565826248168698
v -0.5000000000000001 -0.000012499999936937956 0.5658262481686978
v -0.4953560143326747 -0.000012499999936937956 0.583157838628778
v -0.4863845229467028 -0.000012499999936937956 0.5986969175289478
v -0.47369691815394804 -0.000012499999936937956 0.6113845223217027
v -0.4581578392537783 -0.000012499999936937956 0.6203560137076746
v -0.440826248793698 -0.000012499999936937956 0.624999999375
vt 0.8989812500000001 0.9953562499999999
vt 0.017331249999999965 0.9953562499999999
vt 0 1
vt 0.9163125 1
vt 0.015543750000000023 0.99103125
vt 0 1
vt 0.9474 1
vt 0.93185625 0.99103125
vt 0.012687499999999963 0.9873125
vt 0 1
vt 0.972775 1
vt 0.9600875 0.9873125
vt 0.008968750000000025 0.98445625
vt 0 1
vt 0.9907125 1
vt 0.9817437499999999 0.98445625
vt 0.004643750000000002 0.98266875
vt 0 1
vt 1 1
vt 0.9953562499999999 0.98266875
vt 0 0.98266875
vt 0.004643750000000002 1
vt 0.9953562499999999 1
vt 1 0.98266875
vt 0 0.98445625
vt 0.008968750000000025 1
vt 0.9817437499999999 1
vt 0.9907125 0.98445625
vt 0 0.9248125
vt 0.012687499999999963 0.9375
vt 0.9600875 0.9375
vt 0.972775 0.9248125
vt 0 0.92853125
vt 0.015543750000000023 0.9375
vt 0.93185625 0.9375
vt 0.9474 0.92853125
vt 0 0.9953562499999999
vt 0.017331249999999965 1
vt 0.8989812500000001 1
vt 0.9163125 0.9953562499999999
vt 1 0.11834999999999996
vt 1 1
vt 0 1
vt 0 0.11834999999999996
vn 0 1 0
vn 0 1 0
vn 0 1 0
vn 0 1 0
vn 0 1 0
vn 0 1 0
vn 0 1 0
vn 0 1 0
vn 0 1 0
vn 0 1 0
vn -5.987936754712519e-21 0.9999999997559809 0.000022091587258277965
usemtl none
f 12/1/1 13/2/1 14/3/1 11/4/1
f 14/5/2 15/6/2 10/7/2 11/8/2
f 15/9/3 16/10/3 9/11/3 10/12/3
f 16/13/4 17/14/4 8/15/4 9/16/4
f 17/17/5 18/18/5 7/19/5 8/20/5
f 19/21/6 20/22/6 5/23/6 6/24/6
f 20/25/7 21/26/7 4/27/7 5/28/7
f 21/29/8 22/30/8 3/31/8 4/32/8
f 22/33/9 23/34/9 2/35/9 3/36/9
f 23/37/10 24/38/10 1/39/10 2/40/10
f 6/41/11 7/42/11 18/43/11 19/44/11